<?xml version="1.0" encoding="UTF-8"?><svg id="informações" xmlns="http://www.w3.org/2000/svg" width="80" height="80" viewBox="0 0 80 80"><defs><style>.cls-1{fill:#fff;}.cls-2{fill:#f58220;}</style></defs><path class="cls-2" d="m80,40.01c0,22.09-17.91,39.99-40,39.99S0,62.1,0,40.01,17.9,0,40,0s40,17.91,40,40.01Z"/><path class="cls-1" d="m26.53,67.28c-8.85-.77-17.12-15.56-3.36-24.75,8.87-5.66,10.71-11.3,4.59-14.89,8.87,1.69,9.78,9.41,6.73,12.81-4.89,5.39-.92,7.26,2.74,5.45,6.73-3.39,6.12-12.62,1.53-17.61-4.58-4.97-3.97-12.57,3.97-17.69-4.58,4.8-3.67,13.75,3.37,18.02,4.89,2.56,10.08,11.27,5.81,18.55-3.06,4.5.92,7.72,4.58,4.06,3.67-3.66,4.59-10.61,1.84-16.35,9.17,9.97,7.26,21.77,2.44,26.81-7.03,7.65-17.43,7.05-34.25,5.59Z"/><path class="cls-2" d="m30.81,69.59c-6.42-.61-8.55-8.87-3.97-13.76,3.85-4.09,7.65-2.14,7.04.62-1.54,4.58,8.56,3.97,9.47-4.89,3.06,5.5.61,10.4-1.84,11.31,2.14,4.89,7.95,3.36,10.09-.91-.91,5.19-2.44,9.78-20.79,7.64Z"/></svg>