<?xml version="1.0" encoding="UTF-8"?><svg id="informações" xmlns="http://www.w3.org/2000/svg" width="80" height="80" xmlns:xlink="http://www.w3.org/1999/xlink" viewBox="0 0 80 80"><defs><style>.cls-1{stroke-width:.98px;}.cls-1,.cls-2{stroke:#f1efeb;}.cls-1,.cls-3{fill:#f1efeb;}.cls-2{stroke-width:2px;}.cls-2,.cls-4{fill:#00a2a4;}.cls-5,.cls-6{fill:none;}.cls-6{clip-path:url(#clippath);}</style><clipPath id="clippath"><path class="cls-5" d="m39.99,6.23C21.34,6.23,6.24,21.35,6.24,40s15.1,33.78,33.76,33.78,33.76-15.12,33.76-33.78S58.65,6.23,39.99,6.23Z"/></clipPath></defs><path class="cls-4" d="m39.99,0C17.9,0,.01,17.91.01,40s17.89,40,39.98,40,39.99-17.91,39.99-40S62.09,0,39.99,0Z"/><g class="cls-6"><polygon class="cls-3" points="56.07 23.25 49.95 28.91 49.95 25.97 46.27 25.97 46.27 32.31 42.48 35.83 46.1 35.83 46.1 45.04 50.98 45.04 50.98 39.04 54.13 39.04 54.13 45.04 66.04 45.04 66.04 35.83 69.66 35.83 56.07 23.25"/><path class="cls-2" d="m100.18,42.82c-5.7-1.93-5.46-3.4-11.51-3.4s-6.03,3.51-12.06,3.51-6.04-3.51-12.06-3.51-6.02,3.51-12.04,3.51-6.04-3.51-12.06-3.51-6.04,3.51-12.04,3.51-6.03-3.51-12.05-3.51-6.03,3.51-12.05,3.51-6.03-3.51-12.05-3.51-6.03,3.51-12.04,3.51-6.93-5.36-12.62-3.42v40.37H100.01l.17-37.06Z"/><path class="cls-1" d="m100.18,83.23v-33.4c-5.7-1.93-5.46-3.4-11.51-3.4s-6.03,3.51-12.06,3.51-6.04-3.51-12.06-3.51-6.02,3.51-12.04,3.51-6.04-3.51-12.06-3.51-6.04,3.51-12.04,3.51-6.03-3.51-12.05-3.51-6.03,3.51-12.05,3.51-6.03-3.51-12.05-3.51-6.03,3.51-12.04,3.51-6.93-5.36-12.62-3.41v39.62l132.58-2.92Z"/></g></svg>