<?xml version="1.0" encoding="UTF-8"?><svg id="informações" xmlns="http://www.w3.org/2000/svg" width="80" height="80" xmlns:xlink="http://www.w3.org/1999/xlink" viewBox="0 0 80 80"><defs><style>.cls-1{stroke:#fff;stroke-width:2.95px;}.cls-1,.cls-2,.cls-3{fill:none;}.cls-4{fill:#fff;}.cls-5{fill:#d71920;}.cls-6{fill:#f1efeb;stroke-width:.98px;}.cls-6,.cls-7{stroke:#f1efeb;}.cls-7{fill:#00a2a4;stroke-width:2px;}.cls-3{clip-path:url(#clippath);}.cls-8{fill:#ed1c24;}</style><clipPath id="clippath"><path class="cls-2" d="m139.99,6.23c-18.66,0-33.76,15.11-33.76,33.76s15.1,33.78,33.76,33.78,33.76-15.12,33.76-33.78-15.11-33.76-33.76-33.76Z"/></clipPath></defs><path class="cls-8" d="m79.88,40.01c0,22.03-17.86,39.88-39.88,39.88S.12,62.03.12,40.01,17.97.11,40,.11s39.88,17.86,39.88,39.89Z"/><path class="cls-5" d="m44.67,49.71l-.23-32.17c-.02-2.61-2.15-4.71-4.76-4.69-2.61.02-4.71,2.15-4.69,4.75l.22,32.17c-2.75,1.64-4.6,4.65-4.57,8.09.04,5.16,4.25,9.32,9.42,9.28,5.16-.04,9.32-4.25,9.28-9.41-.02-3.44-1.91-6.43-4.68-8.03Z"/><path class="cls-1" d="m44.67,49.71l-.23-32.17c-.02-2.61-2.15-4.71-4.76-4.69-2.61.02-4.71,2.15-4.69,4.75l.22,32.17c-2.75,1.64-4.6,4.65-4.57,8.09.04,5.16,4.25,9.32,9.42,9.28,5.16-.04,9.32-4.25,9.28-9.41-.02-3.44-1.91-6.43-4.68-8.03Z"/><path class="cls-4" d="m41.38,52.62l-.11-16.27c0-.79-.64-1.42-1.43-1.41-.78,0-1.42.65-1.41,1.43l.11,16.27c-2.28.64-3.95,2.72-3.93,5.2.02,2.98,2.46,5.37,5.43,5.35,2.97-.02,5.37-2.45,5.34-5.43-.01-2.48-1.72-4.54-4-5.15Z"/><g class="cls-3"><path class="cls-7" d="m200.18,42.82c-5.7-1.93-5.46-3.4-11.51-3.4s-6.03,3.51-12.06,3.51-6.04-3.51-12.06-3.51-6.02,3.51-12.04,3.51-6.04-3.51-12.06-3.51-6.04,3.51-12.04,3.51-6.03-3.51-12.05-3.51-6.03,3.51-12.05,3.51-6.03-3.51-12.05-3.51-6.03,3.51-12.04,3.51-6.93-5.36-12.62-3.42v40.37h132.41l.17-37.06Z"/><path class="cls-6" d="m200.18,83.23v-33.4c-5.7-1.93-5.46-3.4-11.51-3.4s-6.03,3.51-12.06,3.51-6.04-3.51-12.06-3.51-6.02,3.51-12.04,3.51-6.04-3.51-12.06-3.51-6.04,3.51-12.04,3.51-6.03-3.51-12.05-3.51-6.03,3.51-12.05,3.51-6.03-3.51-12.05-3.51-6.03,3.51-12.04,3.51-6.93-5.36-12.62-3.41v39.62l132.58-2.92Z"/></g></svg>