<?xml version="1.0" encoding="UTF-8"?><svg id="informações" xmlns="http://www.w3.org/2000/svg" width="80" height="80" xmlns:xlink="http://www.w3.org/1999/xlink" viewBox="0 0 80 80"><defs><style>.cls-1{fill:#fff;}.cls-2{fill:#f1efeb;stroke-width:.98px;}.cls-2,.cls-3{stroke:#f1efeb;}.cls-3{fill:#00a2a4;stroke-width:2px;}.cls-4,.cls-5{fill:none;}.cls-6{fill:#a7659b;}.cls-5{clip-path:url(#clippath);}</style><clipPath id="clippath"><path class="cls-4" d="m-60.01,6.23c-18.66,0-33.76,15.11-33.76,33.76s15.1,33.78,33.76,33.78,33.76-15.12,33.76-33.78S-41.35,6.23-60.01,6.23Z"/></clipPath></defs><path class="cls-6" d="m39.99,0C17.9,0,.01,17.91.01,40s17.89,40,39.98,40,39.99-17.91,39.99-40S62.09,0,39.99,0Z"/><g class="cls-5"><path class="cls-3" d="m.18,42.82c-5.7-1.93-5.46-3.4-11.51-3.4s-6.03,3.51-12.06,3.51-6.04-3.51-12.06-3.51-6.02,3.51-12.04,3.51-6.04-3.51-12.06-3.51-6.04,3.51-12.04,3.51-6.03-3.51-12.05-3.51-6.03,3.51-12.05,3.51-6.03-3.51-12.05-3.51-6.03,3.51-12.04,3.51-6.93-5.36-12.62-3.42v40.37H.01l.17-37.06Z"/><path class="cls-2" d="m.18,83.23v-33.4c-5.7-1.93-5.46-3.4-11.51-3.4s-6.03,3.51-12.06,3.51-6.04-3.51-12.06-3.51-6.02,3.51-12.04,3.51-6.04-3.51-12.06-3.51-6.04,3.51-12.04,3.51-6.03-3.51-12.05-3.51-6.03,3.51-12.05,3.51-6.03-3.51-12.05-3.51-6.03,3.51-12.04,3.51-6.93-5.36-12.62-3.41v39.62L.18,83.23Z"/></g><path class="cls-1" d="m38.39,71.95v-10.06l-8.78,5.01-1.59-2.76,7.03-4.03c2.07-1.19,3.34-3.39,3.34-5.78h0c0-5.14-5.56-8.35-10-5.78l-.03.02c-2.06,1.19-3.32,3.39-3.32,5.76v8.04h-3.22v-10.07l-8.72,5.05-1.59-2.76,8.72-5.05-8.72-5.01,1.59-2.81,6.99,4.04c2.06,1.19,4.59,1.19,6.65,0h0c4.46-2.56,4.46-8.99,0-11.55h-.02c-2.05-1.19-4.58-1.19-6.63-.01l-7,4.01-1.59-2.76,8.72-5.01-8.72-5.05,1.59-2.76,8.72,5.01v-10.03h3.22v8.05c0,2.38,1.27,4.57,3.33,5.76l.03.02c4.44,2.57,9.99-.63,9.99-5.76v-.05c0-2.39-1.28-4.59-3.35-5.78l-6.98-4,1.6-2.81,8.73,5.05v-10.06h3.22v10.06l8.73-5.05,1.6,2.81-6.98,4c-2.07,1.19-3.35,3.39-3.35,5.78v.05c0,5.13,5.55,8.33,9.99,5.76l.03-.02c2.06-1.19,3.33-3.39,3.33-5.76v-8.05h3.22v10.03l8.69-5.01,1.63,2.76-8.69,5.05,8.69,5.01-1.59,2.76-7.02-4.02c-2.05-1.18-4.58-1.17-6.63,0h-.02c-4.45,2.57-4.45,9,0,11.56h0c2.06,1.19,4.6,1.18,6.66,0l6.97-4.04,1.63,2.81-8.69,5.01,8.69,5.05-1.59,2.76-8.72-5.05v10.07h-3.22v-8.04c0-2.38-1.27-4.57-3.32-5.76l-.03-.02c-4.44-2.57-10,.63-10,5.76h0c0,2.4,1.28,4.6,3.34,5.79l7.03,4.03-1.59,2.76-8.78-5.01v10.06h-3.22Z"/></svg>